<mxfile host="app.diagrams.net" modified="2024-04-03T01:13:48.104Z" agent="Mozilla/5.0 (Windows NT 10.0; Win64; x64) AppleWebKit/537.36 (KHTML, like Gecko) Chrome/123.0.0.0 Safari/537.36 Edg/123.0.0.0" version="24.2.1" etag="dFBBn-sVDgnmLwCIVwcA" type="github">
  <diagram name="PÃ¡gina-1" id="P5p0mqDH4aUkCotewYP_">
    <mxGraphModel>
      <root>
        <mxCell id="0" />
        <mxCell id="1" parent="0" />
      </root>
    </mxGraphModel>
  </diagram>
</mxfile>
